<?xml version="1.0" encoding="UTF-8"?>
<!-- Generated by Pixelmator Pro 3.6.9 -->
<svg width="400" height="400" viewBox="0 0 400 400" xmlns="http://www.w3.org/2000/svg">
    <g id="npvideo-game6212936000000">
        <path id="Rounded-Rectangle" fill="#fecd06" fill-rule="evenodd" stroke="none" d="M 80 346 C 80 354.836548 87.163445 362 96 362 L 297 362 C 305.836548 362 313 354.836548 313 346 L 313 53 C 313 44.163452 305.836548 37 297 37 L 96 37 C 87.163445 37 80 44.163452 80 53 Z"/>
        <path id="Path" fill="#a0a09e" fill-rule="evenodd" stroke="none" d="M 135 213 L 134 228 L 111 232 L 115 256 L 135 258 L 137 276 L 159 278 L 162 259 L 183 259 L 182 235 L 165 233 L 165 213 L 135 213 Z"/>
        <path id="Oval" fill="#dd1a23" fill-rule="evenodd" stroke="none" d="M 235 272 C 235 267.029419 230.075134 263 224 263 C 217.924866 263 213 267.029419 213 272 C 213 276.970581 217.924866 281 224 281 C 230.075134 281 235 276.970581 235 272 Z"/>
        <path id="path1" fill="#00bfd4" fill-rule="evenodd" stroke="none" d="M 281 226 C 281 221.029434 276.298981 217 270.5 217 C 264.701019 217 260 221.029434 260 226 C 260 230.970566 264.701019 235 270.5 235 C 276.298981 235 281 230.970566 281 226 Z"/>
        <path id="path2" fill="#000000" stroke="none" d="M 304.674408 27.582428 L 94.657364 27.582428 C 83.450974 27.582428 74.334274 36.699127 74.334274 47.905518 L 74.334274 352.762695 C 74.334274 363.969055 83.450974 373.085785 94.657364 373.085785 L 270.790588 373.085785 C 300.678864 373.085785 324.985992 348.779724 324.985992 318.890381 L 325 47.902649 C 325 36.696259 315.883301 27.579559 304.67691 27.579559 Z M 311.448639 318.892548 C 311.448639 341.305328 293.215576 359.537292 270.803864 359.537292 L 94.656288 359.537292 C 90.925369 359.537292 87.882042 356.493744 87.882042 352.763062 L 87.882042 47.905884 C 87.882042 44.174957 90.925591 41.131622 94.656288 41.131622 L 304.673279 41.131622 C 308.404205 41.131622 311.447571 44.175201 311.447571 47.905884 Z"/>
        <path id="path3" fill="#000000" stroke="none" d="M 291.12735 54.679749 L 108.208 54.679749 C 104.463089 54.679749 101.433762 57.709259 101.433762 61.45401 L 101.433762 176.616531 C 101.433762 180.361465 104.463272 183.390762 108.208 183.390762 L 291.12735 183.390762 C 294.872253 183.390762 297.901581 180.361252 297.901581 176.616531 L 297.901581 61.45401 C 297.901581 57.709106 294.858032 54.679749 291.12735 54.679749 Z"/>
        <path id="path4" fill="#e0e0e0" fill-rule="evenodd" stroke="none" opacity="0.55484" d="M 247 55 L 197 183 L 222 183 L 273 55 L 247 55 Z"/>
        <path id="Path-copy" fill="#e0e0e0" fill-rule="evenodd" stroke="none" opacity="0.55484" d="M 208 55 L 158 183 L 183 183 L 234 55 L 208 55 Z"/>
        <path id="path5" fill="#000000" stroke="none" d="M 189.497513 257.922913 L 189.497513 230.825562 C 189.497513 227.080658 186.468002 224.051331 182.723251 224.051331 L 169.174774 224.051331 L 169.174774 210.502838 C 169.174774 206.757919 166.145264 203.728592 162.400528 203.728592 L 135.303192 203.728592 C 131.558273 203.728592 128.528946 206.758102 128.528946 210.502838 L 128.528946 224.051331 L 114.980453 224.051331 C 111.235535 224.051331 108.206215 227.080826 108.206215 230.825562 L 108.206215 257.922913 C 108.206215 261.667816 111.235718 264.697144 114.980453 264.697144 L 128.528946 264.697144 L 128.528946 278.245605 C 128.528946 281.99057 131.558456 285.019897 135.303192 285.019897 L 162.400528 285.019897 C 166.145447 285.019897 169.174774 281.990387 169.174774 278.245605 L 169.174774 264.697144 L 182.723251 264.697144 C 186.46817 264.697144 189.497513 261.653625 189.497513 257.922913 Z M 175.94902 251.148651 L 162.400528 251.148651 C 158.655609 251.148651 155.626282 254.178162 155.626282 257.922913 L 155.626282 271.471375 L 142.077789 271.471375 L 142.077789 257.922913 C 142.077789 254.177994 139.048294 251.148651 135.303558 251.148651 L 121.755066 251.148651 L 121.755066 237.600159 L 135.303558 237.600159 C 139.048477 237.600159 142.077789 234.570663 142.077789 230.825928 L 142.077789 217.277435 L 155.626282 217.277435 L 155.626282 230.825928 C 155.626282 234.570847 158.655792 237.600159 162.400528 237.600159 L 175.94902 237.600159 Z"/>
        <path id="path6" fill="#000000" stroke="none" d="M 270.801361 203.727509 C 259.595001 203.727509 250.478287 212.844223 250.478287 224.050613 C 250.478287 235.256989 259.595001 244.373688 270.801361 244.373688 C 282.007751 244.373688 291.124451 235.256989 291.124451 224.050613 C 291.124451 212.844223 282.007751 203.727509 270.801361 203.727509 Z M 270.801361 230.82486 C 267.070465 230.82486 264.02713 227.781311 264.02713 224.050613 C 264.02713 220.319702 267.070648 217.276352 270.801361 217.276352 C 274.532074 217.276352 277.575623 220.319901 277.575623 224.050613 C 277.575623 227.781509 274.532074 230.82486 270.801361 230.82486 Z"/>
        <path id="path7" fill="#000000" stroke="none" d="M 243.70726 271.46994 C 243.70726 260.26358 234.590546 251.146881 223.384171 251.146881 C 212.17778 251.146881 203.061081 260.26358 203.061081 271.46994 C 203.061081 282.676331 212.17778 291.79303 223.384171 291.79303 C 234.590546 291.79303 243.70726 282.676331 243.70726 271.46994 Z M 223.384171 278.244202 C 219.653259 278.244202 216.609924 275.200684 216.609924 271.46994 C 216.609924 267.739258 219.653458 264.695709 223.384171 264.695709 C 227.115097 264.695709 230.158401 267.739258 230.158401 271.46994 C 230.158401 275.200684 227.114868 278.244202 223.384171 278.244202 Z"/>
        <path id="path8" fill="#000000" stroke="none" d="M 160.995911 314.09668 L 147.447418 327.645142 C 144.7966 330.295959 144.7966 334.573792 147.447418 337.22467 C 150.098236 339.87558 154.376068 339.875488 157.026947 337.22467 L 170.575424 323.676178 C 173.226242 321.025391 173.226242 316.747559 170.575424 314.09668 C 167.938629 311.459869 163.64679 311.459869 160.995911 314.09668 Z"/>
        <path id="path9" fill="#000000" stroke="none" d="M 201.644241 314.09668 L 188.095764 327.645142 C 185.444962 330.295959 185.444962 334.573792 188.095764 337.22467 C 190.746582 339.875488 195.024384 339.875488 197.675293 337.22467 L 211.223785 323.676178 C 213.874588 321.025391 213.874588 316.747559 211.223785 314.09668 C 208.58696 311.459869 204.295135 311.459869 201.644241 314.09668 Z"/>
        <path id="path10" fill="#000000" stroke="none" d="M 242.30336 314.09668 L 228.754883 327.645142 C 226.104065 330.295959 226.104065 334.573792 228.754883 337.22467 C 231.405701 339.875488 235.683517 339.875488 238.334396 337.22467 L 251.882889 323.676178 C 254.533707 321.025391 254.533707 316.747559 251.882889 314.09668 C 249.232071 311.459869 244.940247 311.459869 242.30336 314.09668 Z"/>
    </g>
</svg>
