<?xml version="1.0" encoding="UTF-8"?>
<!-- Generated by Pixelmator Pro 3.6.9 -->
<svg width="400" height="400" viewBox="0 0 400 400" xmlns="http://www.w3.org/2000/svg">
    <g id="nppresent7182736000000">
        <path id="Rounded-Rectangle" fill="#fecd06" fill-rule="evenodd" stroke="none" d="M 30 337 C 30 359.0914 47.908607 377 70 377 L 329 377 C 351.0914 377 369 359.0914 369 337 L 369 182 C 369 159.908615 351.0914 142 329 142 L 70 142 C 47.908607 142 30 159.908615 30 182 Z"/>
        <path id="Path" fill="#dd1a23" stroke="none" d="M 351.910767 139.063812 C 351.910767 139.063812 47.422844 139.063812 47.422844 139.063812 C 38.139652 139.063812 30.335833 146.86763 30.335833 156.150818 L 30.335833 247.504837 L 189.267761 247.504837 L 189.267761 145.374878 L 210.068069 145.374878 L 210.068069 247.489975 L 369 247.489975 L 369 156.150818 C 369 146.86763 361.573456 139.063812 351.912994 139.063812 Z"/>
        <path id="Path-copy" fill="#fecd06" stroke="none" d="M 281.737244 140.063812 C 288.78653 137.830048 294.356445 135.61084 298.446991 132.259979 C 311.066193 122.599518 319.609711 108.863373 321.843628 93.270569 C 324.077362 77.677795 320.364075 61.707733 310.703796 49.090027 C 305.133881 41.286194 297.707306 35.353851 289.163818 31.263336 C 280.997559 27.172791 271.714386 24.953735 262.793579 24.953735 C 249.797134 24.953735 237.540359 29.04425 227.517471 36.833252 C 219.351242 43.142822 211.184998 55.022339 203.381195 73.226288 L 193.358322 73.226288 C 185.554489 55.037201 177.765533 43.142822 169.222015 36.833252 C 158.821869 29.029419 146.565094 24.953735 133.945892 24.953735 C 125.03997 24.953735 115.756783 27.187469 107.575691 31.263336 C 99.409454 35.353851 91.982903 41.286194 86.412987 49.090027 C 76.752525 61.709229 73.039253 77.679291 75.273163 93.270569 C 77.506912 108.863373 86.035721 122.976807 98.669777 132.259979 C 102.760315 135.23349 108.330223 137.829895 115.379509 140.063812 L 189.267761 146.374878 L 210.068069 146.374878 Z M 139.51506 120.018066 C 121.68837 117.784302 115.001495 114.070862 113.144867 112.591522 C 105.718307 107.021606 100.888077 98.855347 99.408707 89.572174 C 97.929344 80.288971 100.525589 71.005768 106.095581 63.579224 C 112.782448 54.673279 123.182587 49.46579 134.322418 49.46579 C 141.748962 49.46579 149.175522 51.699554 155.122711 56.515106 C 160.315353 60.228363 167.002213 72.10788 173.689087 88.817627 C 171.092697 93.270569 169.975815 98.10083 169.975815 103.293457 C 169.975815 110.342743 172.209564 116.667175 176.2854 121.859833 C 162.53479 121.874329 149.915207 121.120087 139.515442 120.0177 Z M 223.063782 121.874695 C 227.154312 116.682037 229.373367 110.357574 229.373367 103.308319 C 229.373367 96.998718 227.516739 91.428802 224.180725 86.598572 C 230.490326 71.005768 236.799927 59.865936 242.007431 56.152679 C 247.954605 51.699707 255.38118 49.103394 262.807709 49.103394 C 273.94754 49.103394 284.347687 54.296021 291.034546 63.216797 C 296.604462 70.643372 298.838348 79.926544 297.721405 89.209747 C 296.604462 98.49295 291.411804 106.65918 283.98526 112.229095 C 282.128632 113.708588 275.819031 117.059326 257.615051 119.65564 C 247.94014 121.120636 236.060623 121.874908 223.064163 121.874908 Z"/>
        <path id="path1" fill="#dd1a23" stroke="none" d="M 210.067307 376.71347 L 351.910767 376.71347 C 361.193939 376.71347 368.997772 368.909637 368.997772 359.626465 L 368.997772 268.287292 L 210.065811 268.287292 Z"/>
        <path id="path2" fill="#dd1a23" stroke="none" d="M 30.335089 359.625 C 30.335089 368.908173 38.138912 376.712006 47.422104 376.712006 L 189.265549 376.712006 L 189.265549 268.288025 L 30.333605 268.288025 Z"/>
    </g>
</svg>
