<?xml version="1.0" encoding="UTF-8"?>
<svg width="100pt" height="100pt" version="1.1" viewBox="0 0 100 100" xmlns="http://www.w3.org/2000/svg">
 <g fill-rule="evenodd" fill="green">
  <path d="m73.852 81.957 1.5273 3.9766h-50.766l6.1172-17.43c12.539 7.9492 27.523 11.926 43.121 13.457z"/>
  <path d="m61.316 46.484 11.008 31.191c-14.375-1.5273-28.441-5.5039-40.062-13.148l1.8359-5.1992c9.7852-2.1406 18.961-6.7266 27.219-12.844z"/>
  <path d="m57.035 34.555 2.7539 7.6445c-7.3398 5.8086-15.289 10.09-24.16 12.539l9.4805-26.605c3.3633 3.3633 7.6445 5.5039 11.926 6.4219z"/>
  <path d="m50 14.375 5.5039 15.289c-3.3633-0.91797-6.4219-2.7539-8.8672-5.5039z"/>
  <path fill="brown" d="m55.504 87.156v12.844h-10.703v-12.844z"/>
  <path fill="yellow" d="m50 0 2.1406 7.0352h7.3398l-5.8125 4.2812 2.1406 7.0312-5.8086-4.2812-6.1172 4.2812 2.4492-7.0312-6.1172-4.2812h7.3398z"/>
 </g>
</svg>
